<svg width="25" height="23" viewBox="0 0 25 23" fill="none" xmlns="http://www.w3.org/2000/svg">
<path d="M8.00124 14.7886H8.00232C8.00322 14.7886 8.00412 14.7884 8.00503 14.7884H20.5713C20.8807 14.7884 21.1527 14.5748 21.2377 14.2653L24.0101 4.16772C24.0699 3.95003 24.028 3.716 23.8971 3.53531C23.7661 3.35462 23.5612 3.24831 23.3437 3.24831H6.40277L5.90731 0.928078C5.83673 0.598065 5.55552 0.363281 5.23063 0.363281H1.07201C0.689178 0.363281 0.378906 0.686156 0.378906 1.08454C0.378906 1.48292 0.689178 1.80579 1.07201 1.80579H4.6747C4.76242 2.21695 7.04569 12.9092 7.17709 13.5243C6.44049 13.8575 5.92373 14.6218 5.92373 15.5097C5.92373 16.7027 6.85653 17.6734 8.00304 17.6734H20.5713C20.9541 17.6734 21.2644 17.3506 21.2644 16.9522C21.2644 16.5538 20.9541 16.2309 20.5713 16.2309H8.00304C7.62093 16.2309 7.30994 15.9073 7.30994 15.5097C7.30994 15.1126 7.61985 14.7895 8.00124 14.7886ZM22.4248 4.69082L20.0484 13.3459H8.55897L6.71069 4.69082H22.4248Z" fill="white" stroke="white" stroke-width="0.5"/>
<path d="M7.30957 19.8376C7.30957 21.0307 8.24237 22.0014 9.38888 22.0014C10.5354 22.0014 11.4682 21.0307 11.4682 19.8376C11.4682 18.6445 10.5354 17.6738 9.38888 17.6738C8.24237 17.6738 7.30957 18.6445 7.30957 19.8376ZM9.38888 19.1163C9.77099 19.1163 10.082 19.44 10.082 19.8376C10.082 20.2352 9.77099 20.5589 9.38888 20.5589C9.00677 20.5589 8.69578 20.2352 8.69578 19.8376C8.69578 19.44 9.00677 19.1163 9.38888 19.1163Z" fill="white" stroke="white" stroke-width="0.5"/>
<path d="M17.1055 19.8376C17.1055 21.0307 18.0383 22.0014 19.1848 22.0014C20.3313 22.0014 21.2641 21.0307 21.2641 19.8376C21.2641 18.6445 20.3313 17.6738 19.1848 17.6738C18.0383 17.6738 17.1055 18.6445 17.1055 19.8376ZM19.1848 19.1163C19.5669 19.1163 19.8779 19.44 19.8779 19.8376C19.8779 20.2352 19.5669 20.5589 19.1848 20.5589C18.8027 20.5589 18.4917 20.2352 18.4917 19.8376C18.4917 19.44 18.8027 19.1163 19.1848 19.1163Z" fill="white" stroke="white" stroke-width="0.5"/>
</svg>
