<svg width="25" height="23" viewBox="0 0 25 23" fill="none" xmlns="http://www.w3.org/2000/svg">
<path d="M8.33159 14.9785H8.33263C8.3335 14.9785 8.33437 14.9783 8.33524 14.9783H20.4222C20.7198 14.9783 20.9814 14.7669 21.0632 14.4606L23.7298 4.46658C23.7873 4.25112 23.747 4.01949 23.6212 3.84065C23.4951 3.66182 23.2981 3.5566 23.0889 3.5566H6.79409L6.31753 1.26017C6.24965 0.933547 5.97916 0.701172 5.66666 0.701172H1.66667C1.29844 0.701172 1 1.02073 1 1.41503C1 1.80932 1.29844 2.12888 1.66667 2.12888H5.13194C5.21631 2.53582 7.41249 13.1184 7.53888 13.7272C6.83038 14.057 6.33333 14.8134 6.33333 15.6922C6.33333 16.873 7.23055 17.8337 8.33333 17.8337H20.4222C20.7904 17.8337 21.0889 17.5142 21.0889 17.1199C21.0889 16.7256 20.7904 16.406 20.4222 16.406H8.33333C7.96579 16.406 7.66666 16.0857 7.66666 15.6922C7.66666 15.2992 7.96475 14.9794 8.33159 14.9785ZM22.205 4.98431L19.9193 13.5506H8.86805L7.09027 4.98431H22.205Z" fill="#2D468D" stroke="#2D468D" stroke-width="0.5"/>
<path d="M7.6665 19.9756C7.6665 21.1564 8.56373 22.1171 9.6665 22.1171C10.7693 22.1171 11.6665 21.1564 11.6665 19.9756C11.6665 18.7947 10.7693 17.834 9.6665 17.834C8.56373 17.834 7.6665 18.7947 7.6665 19.9756ZM9.6665 19.2617C10.034 19.2617 10.3332 19.582 10.3332 19.9756C10.3332 20.3691 10.034 20.6894 9.6665 20.6894C9.29897 20.6894 8.99984 20.3691 8.99984 19.9756C8.99984 19.582 9.29897 19.2617 9.6665 19.2617Z" fill="#2D468D" stroke="#2D468D" stroke-width="0.5"/>
<path d="M17.0889 19.9756C17.0889 21.1564 17.9861 22.1171 19.0889 22.1171C20.1916 22.1171 21.0889 21.1564 21.0889 19.9756C21.0889 18.7947 20.1916 17.834 19.0889 17.834C17.9861 17.834 17.0889 18.7947 17.0889 19.9756ZM19.0889 19.2617C19.4564 19.2617 19.7555 19.582 19.7555 19.9756C19.7555 20.3691 19.4564 20.6894 19.0889 20.6894C18.7213 20.6894 18.4222 20.3691 18.4222 19.9756C18.4222 19.582 18.7213 19.2617 19.0889 19.2617Z" fill="#2D468D" stroke="#2D468D" stroke-width="0.5"/>
</svg>
