<svg width="21" height="24" viewBox="0 0 21 24" fill="none" xmlns="http://www.w3.org/2000/svg">
<path d="M10.3113 13.5508C4.06378 13.5508 0.623047 16.6264 0.623047 22.2112C0.623047 22.6473 0.962762 23.0008 1.38191 23.0008H19.2407C19.6599 23.0008 19.9996 22.6473 19.9996 22.2112C19.9996 16.6267 16.5589 13.5508 10.3113 13.5508ZM2.1684 21.4215C2.46689 17.2458 5.20261 15.1302 10.3113 15.1302C15.4201 15.1302 18.1558 17.2458 18.4546 21.4215H2.1684Z" fill="white" stroke="white"/>
<path d="M10.3112 1.36328C7.44137 1.36328 5.27734 3.66051 5.27734 6.70665C5.27734 9.842 7.5355 12.3925 10.3112 12.3925C13.0869 12.3925 15.345 9.842 15.345 6.7069C15.345 3.66051 13.181 1.36328 10.3112 1.36328ZM10.3112 10.8133C8.37226 10.8133 6.79508 8.97121 6.79508 6.7069C6.79508 4.52577 8.27386 2.94266 10.3112 2.94266C12.3159 2.94266 13.8273 4.56076 13.8273 6.7069C13.8273 8.97121 12.2501 10.8133 10.3112 10.8133Z" fill="white" stroke="white"/>
</svg>
