<svg width="20" height="23" viewBox="0 0 20 23" fill="none" xmlns="http://www.w3.org/2000/svg">
<path d="M10.0741 12.7637C4.06486 12.7637 0.755371 15.8077 0.755371 21.3352C0.755371 21.7669 1.08213 22.1168 1.48529 22.1168H18.6629C19.0661 22.1168 19.3928 21.7669 19.3928 21.3352C19.3929 15.808 16.0834 12.7637 10.0741 12.7637ZM2.24178 20.5536C2.52889 16.4208 5.16025 14.3269 10.0741 14.3269C14.988 14.3269 17.6194 16.4208 17.9067 20.5536H2.24178Z" fill="#2D468D" stroke="#2D468D"/>
<path d="M10.0742 0.701172C7.3139 0.701172 5.23242 2.97483 5.23242 5.98972C5.23242 9.0929 7.40445 11.6172 10.0742 11.6172C12.744 11.6172 14.9161 9.0929 14.9161 5.98997C14.9161 2.97483 12.8346 0.701172 10.0742 0.701172ZM10.0742 10.0543C8.20929 10.0543 6.69226 8.23105 6.69226 5.98997C6.69226 3.83121 8.11464 2.26435 10.0742 2.26435C12.0025 2.26435 13.4562 3.86584 13.4562 5.98997C13.4562 8.23105 11.9392 10.0543 10.0742 10.0543Z" fill="#2D468D" stroke="#2D468D"/>
</svg>
