<svg width="23" height="24" viewBox="0 0 23 24" fill="none" xmlns="http://www.w3.org/2000/svg">
<path d="M8.68439 1.36328H2.35561C1.60795 1.36328 1 1.99644 1 2.77442V9.35981C1 10.1378 1.60844 10.7709 2.35606 10.7709H8.68439C9.43205 10.7709 10.0405 10.1378 10.0405 9.35981V2.77442C10.0405 1.99644 9.43205 1.36328 8.68439 1.36328ZM9.13644 9.35981C9.13644 9.61899 8.93346 9.83017 8.68443 9.83017H2.35606C2.10699 9.83017 1.90405 9.61895 1.90405 9.35981V2.77442C1.90405 2.51524 2.10654 2.30406 2.35561 2.30406H8.68439C8.93346 2.30406 9.1364 2.51528 9.1364 2.77442V9.35981H9.13644Z" fill="white" stroke="white"/>
<path d="M20.4373 1.36328H14.109C13.3613 1.36328 12.7529 1.99644 12.7529 2.77442V9.35981C12.7529 10.1378 13.3614 10.7709 14.109 10.7709H20.4373C21.185 10.7709 21.7934 10.1378 21.7934 9.35981V2.77442C21.7934 1.99644 21.1849 1.36328 20.4373 1.36328ZM20.8893 9.35981C20.8893 9.61899 20.6868 9.83017 20.4373 9.83017H14.109C13.8595 9.83017 13.657 9.61895 13.657 9.35981V2.77442C13.657 2.51524 13.8595 2.30406 14.109 2.30406H20.4373C20.6868 2.30406 20.8893 2.51528 20.8893 2.77442V9.35981Z" fill="white" stroke="white"/>
<path d="M8.68439 13.5938H2.35561C1.60795 13.5938 1 14.2269 1 15.0049V21.5903C1 22.3683 1.60844 23.0014 2.35606 23.0014H8.68439C9.43205 23.0014 10.0405 22.3683 10.0405 21.5903V15.0049C10.0405 14.2269 9.43205 13.5938 8.68439 13.5938ZM9.13644 21.5903C9.13644 21.85 8.93346 22.0607 8.68443 22.0607H2.35606C2.10699 22.0607 1.90405 21.85 1.90405 21.5903V15.0049C1.90405 14.7453 2.10654 14.5346 2.35561 14.5346H8.68439C8.93346 14.5346 9.1364 14.7453 9.1364 15.0049V21.5903H9.13644Z" fill="white" stroke="white"/>
<path d="M20.4373 13.5938H14.109C13.3613 13.5938 12.7529 14.2269 12.7529 15.0049V21.5903C12.7529 22.3683 13.3614 23.0014 14.109 23.0014H20.4373C21.185 23.0014 21.7934 22.3683 21.7934 21.5903V15.0049C21.7934 14.2269 21.1849 13.5938 20.4373 13.5938ZM20.8893 21.5903C20.8893 21.85 20.6868 22.0607 20.4373 22.0607H14.109C13.8595 22.0607 13.657 21.85 13.657 21.5903V15.0049C13.657 14.7453 13.8595 14.5346 14.109 14.5346H20.4373C20.6868 14.5346 20.8893 14.7453 20.8893 15.0049V21.5903Z" fill="white" stroke="white"/>
</svg>
