<svg width="22" height="23" viewBox="0 0 22 23" fill="none" xmlns="http://www.w3.org/2000/svg">
<path d="M8.39128 0.701172H2.30391C1.58477 0.701172 1 1.32783 1 2.09784V8.61565C1 9.3857 1.58523 10.0123 2.30433 10.0123H8.39128C9.11042 10.0123 9.69562 9.38566 9.69562 8.61565V2.09784C9.69566 1.32783 9.11042 0.701172 8.39128 0.701172ZM8.82609 8.61565C8.82609 8.87218 8.63085 9.08119 8.39132 9.08119H2.30433C2.06476 9.08119 1.86957 8.87214 1.86957 8.61565V2.09784C1.86957 1.84131 2.06434 1.63229 2.30391 1.63229H8.39128C8.63085 1.63229 8.82605 1.84135 8.82605 2.09784V8.61565H8.82609Z" fill="#2D468D" stroke="#2D468D"/>
<path d="M19.6955 0.701172H13.6085C12.8894 0.701172 12.3042 1.32783 12.3042 2.09784V8.61565C12.3042 9.3857 12.8894 10.0123 13.6085 10.0123H19.6955C20.4146 10.0123 20.9998 9.38566 20.9998 8.61565V2.09784C20.9998 1.32783 20.4146 0.701172 19.6955 0.701172ZM20.1302 8.61565C20.1302 8.87218 19.9355 9.08119 19.6955 9.08119H13.6085C13.3685 9.08119 13.1738 8.87214 13.1738 8.61565V2.09784C13.1738 1.84131 13.3685 1.63229 13.6085 1.63229H19.6955C19.9355 1.63229 20.1302 1.84135 20.1302 2.09784V8.61565Z" fill="#2D468D" stroke="#2D468D"/>
<path d="M8.39128 12.8066H2.30391C1.58477 12.8066 1 13.4333 1 14.2033V20.7212C1 21.4912 1.58523 22.1178 2.30433 22.1178H8.39128C9.11042 22.1178 9.69562 21.4912 9.69562 20.7212V14.2033C9.69566 13.4333 9.11042 12.8066 8.39128 12.8066ZM8.82609 20.7212C8.82609 20.9781 8.63085 21.1867 8.39132 21.1867H2.30433C2.06476 21.1867 1.86957 20.9781 1.86957 20.7212V14.2033C1.86957 13.9464 2.06434 13.7378 2.30391 13.7378H8.39128C8.63085 13.7378 8.82605 13.9464 8.82605 14.2033V20.7212H8.82609Z" fill="#2D468D" stroke="#2D468D"/>
<path d="M19.6955 12.8066H13.6085C12.8894 12.8066 12.3042 13.4333 12.3042 14.2033V20.7211C12.3042 21.4912 12.8894 22.1178 13.6085 22.1178H19.6955C20.4146 22.1178 20.9998 21.4911 20.9998 20.7211V14.2033C20.9998 13.4333 20.4146 12.8066 19.6955 12.8066ZM20.1302 20.7212C20.1302 20.9782 19.9355 21.1867 19.6955 21.1867H13.6085C13.3685 21.1867 13.1738 20.9782 13.1738 20.7212V14.2033C13.1738 13.9464 13.3685 13.7378 13.6085 13.7378H19.6955C19.9355 13.7378 20.1302 13.9464 20.1302 14.2033V20.7212Z" fill="#2D468D" stroke="#2D468D"/>
</svg>
