<svg width="40" height="33" viewBox="0 0 40 33" fill="none" xmlns="http://www.w3.org/2000/svg">
<path fill-rule="evenodd" clip-rule="evenodd" d="M38.1675 25.4785C38.1675 29.6238 34.8088 33 30.6875 33C25.3437 33 22.4425 28.7024 22.4425 23.4833C22.4425 16.2703 27.48 6.44642 38.32 0L40 2.45596C34.35 7.36788 31.45 13.2 30.2288 17.6512C35.115 17.9583 38.1675 21.3345 38.1675 25.4785ZM15.725 25.4785C15.725 29.6238 12.3663 33 8.24375 33C2.90125 33 0 28.7024 0 23.4833C0 16.2715 5.0375 6.44769 15.8775 0L17.5575 2.45596C11.9075 7.36788 9.0075 13.2 7.78625 17.6512C12.6713 17.9583 15.725 21.3345 15.725 25.4785Z" fill="#CCCCCC"/>
</svg>
