<svg width="50" height="50" viewBox="0 0 50 50" fill="none" xmlns="http://www.w3.org/2000/svg">
<rect x="1.5" y="1.5" width="47" height="47" rx="8.5" stroke="#2D468D" stroke-opacity="0.6" stroke-width="3"/>
<path d="M23.1479 35.8518C20.2446 35.4803 17.5564 34.2779 15.2103 32.2936C14.1057 31.3649 13.832 30.749 14.1644 29.9572C14.4674 29.2241 15.3863 28.8429 16.0999 29.1361C16.2856 29.2143 16.7353 29.5467 17.097 29.879C18.6219 31.2476 20.5574 32.2349 22.6298 32.6846C23.7833 32.9387 26.1685 32.9387 27.322 32.6846C29.4334 32.2251 31.3787 31.228 32.9232 29.8106C33.6466 29.1459 34.0572 28.9699 34.6437 29.0579C35.5333 29.1948 36.0904 30.1039 35.8265 30.9934C35.6017 31.7852 33.6368 33.3688 31.672 34.3366C29.4628 35.4314 27.7912 35.8518 25.3669 35.9007C24.536 35.9202 23.5389 35.9007 23.1479 35.8518Z" fill="#2D468D" fill-opacity="0.6"/>
<circle cx="16" cy="21" r="3" fill="#2D468D" fill-opacity="0.6"/>
<circle cx="34" cy="21" r="3" fill="#2D468D" fill-opacity="0.6"/>
</svg>
