<svg width="50" height="50" viewBox="0 0 50 50" fill="none" xmlns="http://www.w3.org/2000/svg">
<rect x="1.5" y="1.5" width="47" height="47" rx="8.5" stroke="#2D468D" stroke-width="3"/>
<path d="M2 12C2 6.47715 6.47715 2 12 2H38C43.5228 2 48 6.47715 48 12V38C48 43.5229 43.5228 48 38 48H12C6.47715 48 2 43.5229 2 38V12Z" fill="#2D468D"/>
<path d="M11.709 29.8846C11.2109 30.0995 10.9375 30.5878 10.9375 31.2323C10.9375 31.828 11.1035 32.1503 11.6113 32.5214C11.875 32.7264 11.9043 32.7264 24.9512 32.7264C37.998 32.7264 38.0273 32.7264 38.291 32.5214C38.7988 32.1503 38.9648 31.828 38.9648 31.2323C38.9648 30.5682 38.6816 30.0995 38.1738 29.8846C37.6953 29.6893 12.168 29.6893 11.709 29.8846Z" fill="white"/>
<circle cx="16" cy="21" r="3" fill="white"/>
<circle cx="34" cy="21" r="3" fill="white"/>
</svg>
