<svg width="50" height="50" viewBox="0 0 50 50" fill="none" xmlns="http://www.w3.org/2000/svg">
<rect x="1.5" y="1.5" width="47" height="47" rx="8.5" stroke="#2D468D" stroke-opacity="0.6" stroke-width="3"/>
<path d="M14.0918 23.6835C12.5781 24.1718 11.4355 25.412 11.0156 27.0429C10.8984 27.5019 10.8789 27.912 10.9179 28.7812C11.2402 35.1972 15.7324 40.4609 22.1191 41.8867C23.4668 42.1894 26.4355 42.1894 27.8027 41.8867C29.6875 41.457 31.455 40.705 32.959 39.6699C33.9355 38.996 35.4785 37.5117 36.2304 36.496C36.9629 35.5195 37.8027 33.9374 38.2226 32.746C38.8867 30.8417 39.1894 28.2343 38.8867 27.0429C38.457 25.3925 37.3144 24.162 35.7812 23.6835C35.2148 23.5078 34.7265 23.498 24.9218 23.5078C15.2343 23.5078 14.6191 23.5175 14.0918 23.6835ZM35.0781 26.6425C35.2539 26.7402 35.5175 26.9843 35.664 27.1796C35.9179 27.5117 35.9375 27.5995 35.9375 28.4687C35.9277 29.5136 35.7812 30.4218 35.4297 31.496C35.2343 32.0917 34.6972 33.3124 34.5703 33.4394C34.5508 33.4687 34.2773 33.2636 33.9648 32.9902C28.9648 28.6835 20.9375 28.6835 15.9375 32.9902C15.625 33.2636 15.3515 33.4687 15.332 33.4394C15.205 33.3124 14.6582 32.0917 14.4531 31.4472C14.1308 30.4706 13.8867 28.8984 13.9355 28.1269C13.9843 27.2578 14.4336 26.7109 15.2343 26.5156C15.4004 26.4765 19.8535 26.457 25.1465 26.457C34.1015 26.4765 34.7851 26.4863 35.0781 26.6425ZM26.9726 32.9609C28.0957 33.1855 29.3066 33.6054 30.2148 34.1035C30.957 34.5136 32.0019 35.2656 32.4023 35.6855L32.6758 35.9687L32.207 36.3886C31.0058 37.4628 29.3261 38.3417 27.6074 38.8105C26.7578 39.0351 26.4843 39.0644 24.9511 39.0644C23.4179 39.0644 23.1445 39.0351 22.2949 38.8105C20.5664 38.3417 18.8476 37.4335 17.6855 36.3788L17.207 35.9394L17.7148 35.4902C20.1367 33.3124 23.7402 32.3261 26.9726 32.9609Z" fill="#2D468D" fill-opacity="0.6"/>
<path d="M10.2003 18.86C9.26189 18.6938 8.71447 17.5892 9.15436 16.7387C9.45739 16.1717 10.5913 15.292 11.7644 14.725C12.9179 14.1776 14.0616 13.9625 15.5377 14.0212C17.0333 14.0798 17.6491 14.2264 18.9395 14.8618C20.005 15.3897 21.1096 16.2988 21.3344 16.8267C21.4029 17.0026 21.4322 17.3252 21.4126 17.6185C21.3735 18.0193 21.2953 18.1757 21.0216 18.4592C20.3764 19.1043 19.526 19.075 18.7244 18.381C17.6589 17.4523 16.5543 17.0222 15.2542 17.0222C13.9834 17.0222 12.9472 17.3937 11.9306 18.2246C11.0996 18.8991 10.865 18.987 10.2003 18.86Z" fill="#2D468D" fill-opacity="0.6"/>
<path d="M29.0276 18.8795C28.7832 18.8306 28.5193 18.684 28.3042 18.4592C28.0207 18.1757 27.9425 18.029 27.9034 17.6185C27.8839 17.3252 27.9132 17.0026 27.9816 16.8267C28.2064 16.2988 29.3111 15.3897 30.3766 14.8618C31.6669 14.2264 32.2828 14.0798 33.7784 14.0212C34.8243 13.9723 35.1665 14.0016 35.9387 14.1776C37.9134 14.637 40.0737 16.074 40.2594 17.0613C40.4158 17.9411 39.9173 18.7231 39.1059 18.8697C38.5096 18.9773 38.1382 18.8404 37.4344 18.2637C36.3688 17.3937 35.3522 17.0222 34.0619 17.0222C32.7911 17.0222 31.5887 17.4816 30.6405 18.3321C30.0442 18.8697 29.6532 18.9968 29.0276 18.8795Z" fill="#2D468D" fill-opacity="0.6"/>
</svg>
