<svg width="50" height="50" viewBox="0 0 50 50" fill="none" xmlns="http://www.w3.org/2000/svg">
<rect x="1.5" y="1.5" width="47" height="47" rx="8.5" fill="#2D468D" stroke="#2D468D" stroke-width="3"/>
<circle cx="16" cy="19" r="3" fill="white"/>
<circle cx="34" cy="19" r="3" fill="white"/>
<path d="M23.1159 35.8518C20.2126 35.4803 17.5244 34.278 15.1783 32.2936C14.0737 31.3649 13.8 30.7491 14.1324 29.9573C14.4354 29.2241 15.3543 28.8429 16.0679 29.1361C16.2536 29.2144 16.7033 29.5467 17.065 29.8791C18.5899 31.2476 20.5255 32.2349 22.5978 32.6846C23.7513 32.9388 26.1365 32.9388 27.29 32.6846C29.4015 32.2252 31.3468 31.2281 32.8913 29.8106C33.6146 29.1459 34.0252 28.97 34.6117 29.0579C35.5013 29.1948 36.0585 30.1039 35.7945 30.9935C35.5697 31.7853 33.6049 33.3689 31.64 34.3366C29.4308 35.4315 27.7592 35.8518 25.3349 35.9007C24.504 35.9202 23.5069 35.9007 23.1159 35.8518Z" fill="white"/>
</svg>
