<svg width="50" height="50" viewBox="0 0 50 50" fill="none" xmlns="http://www.w3.org/2000/svg">
<rect x="1.5" y="1.5" width="47" height="47" rx="8.5" stroke="#2D468D" stroke-width="3"/>
<path d="M2 12C2 6.47715 6.47715 2 12 2H38C43.5228 2 48 6.47715 48 12V38C48 43.5229 43.5228 48 38 48H12C6.47715 48 2 43.5229 2 38V12Z" fill="#2D468D"/>
<path d="M23.1479 29.0933C20.2446 29.4648 17.5564 30.6671 15.2103 32.6515C14.1057 33.5802 13.832 34.196 14.1644 34.9878C14.4674 35.721 15.3863 36.1022 16.0999 35.8089C16.2856 35.7307 16.7353 35.3984 17.097 35.066C18.6219 33.6975 20.5574 32.7102 22.6298 32.2605C23.7833 32.0063 26.1685 32.0063 27.322 32.2605C29.4334 32.7199 31.3787 33.717 32.9232 35.1345C33.6466 35.7992 34.0572 35.9751 34.6437 35.8872C35.5333 35.7503 36.0904 34.8412 35.8265 33.9516C35.6017 33.1598 33.6368 31.5762 31.672 30.6085C29.4628 29.5136 27.7912 29.0933 25.3669 29.0444C24.536 29.0249 23.5389 29.0444 23.1479 29.0933Z" fill="white"/>
<circle cx="16" cy="21" r="3" fill="white"/>
<circle cx="34" cy="21" r="3" fill="white"/>
</svg>
