<svg width="50" height="50" viewBox="0 0 50 50" fill="none" xmlns="http://www.w3.org/2000/svg">
<rect x="1.5" y="1.5" width="47" height="47" rx="8.5" stroke="#2D468D" stroke-opacity="0.6" stroke-width="3"/>
<path d="M10.5182 21.9768C9.57976 22.143 9.03234 23.2476 9.47223 24.0981C9.77526 24.6651 10.9092 25.5448 12.0822 26.1118C13.2357 26.6592 14.3794 26.8743 15.8555 26.8156C17.3512 26.757 17.967 26.6104 19.2573 25.975C20.3229 25.4471 21.4275 24.538 21.6523 24.0101C21.7207 23.8342 21.7501 23.5116 21.7305 23.2183C21.6914 22.8175 21.6132 22.6611 21.3395 22.3776C20.6943 21.7325 19.8439 21.7618 19.0423 22.4558C17.9768 23.3845 16.8722 23.8146 15.572 23.8146C14.3012 23.8146 13.2651 23.4432 12.2484 22.6122C11.4175 21.9377 11.1829 21.8498 10.5182 21.9768Z" fill="#2D468D" fill-opacity="0.6"/>
<path d="M29.3454 21.9573C29.1011 22.0062 28.8371 22.1528 28.6221 22.3776C28.3386 22.6611 28.2604 22.8077 28.2213 23.2183C28.2017 23.5116 28.2311 23.8342 28.2995 24.0101C28.5243 24.538 29.6289 25.4471 30.6944 25.975C31.9848 26.6103 32.6006 26.757 34.0963 26.8156C35.1422 26.8645 35.4844 26.8352 36.2566 26.6592C38.2312 26.1998 40.3916 24.7628 40.5773 23.7755C40.7337 22.8957 40.2352 22.1137 39.4238 21.9671C38.8275 21.8595 38.4561 21.9964 37.7522 22.5731C36.6867 23.4431 35.6701 23.8146 34.3797 23.8146C33.1089 23.8146 31.9066 23.3552 30.9584 22.5047C30.3621 21.9671 29.9711 21.84 29.3454 21.9573Z" fill="#2D468D" fill-opacity="0.6"/>
<path d="M23.754 31.9379C21.5644 32.2018 19.2672 33.2674 17.8595 34.675C17.0286 35.5059 16.9504 36.3368 17.6347 37.0309C18.2994 37.6956 19.0814 37.6565 19.9319 36.9136C21.3004 35.7112 22.4539 35.1735 24.1548 34.9487C26.1001 34.6946 28.2898 35.3886 29.8147 36.7474C30.8705 37.6858 31.7405 37.7445 32.4345 36.9233C32.982 36.2684 32.8647 35.4473 32.0924 34.675C30.6359 33.2283 28.3778 32.1823 26.1197 31.9379C25.0737 31.8206 24.7511 31.8206 23.754 31.9379Z" fill="#2D468D" fill-opacity="0.6"/>
</svg>
