<svg width="20" height="18" viewBox="0 0 20 18" fill="none" xmlns="http://www.w3.org/2000/svg">
<path d="M10.6827 0.700015L12.4807 5.00001C12.6923 5.40001 13.0096 5.60001 13.4327 5.70001L18.1923 6.00001C19.1442 6.10001 19.5673 7.30001 18.8269 7.90001L15.2307 11C14.9134 11.3 14.8077 11.7 14.9134 12.1L15.9711 16.6C16.1827 17.6 15.125 18.3 14.2788 17.8L10.1538 15.4C9.8365 15.2 9.30765 15.2 8.99035 15.4L4.86535 17.8C4.01919 18.3 2.9615 17.6 3.17304 16.6L4.23073 12.1C4.3365 11.7 4.23073 11.3 3.91342 11L0.423038 8.00001C-0.317347 7.30001 -3.93689e-05 6.10001 1.05765 6.00001L5.81727 5.60001C6.24035 5.60001 6.55765 5.30001 6.76919 4.90001L8.67304 0.600015C8.99035 -0.199985 10.2596 -0.199985 10.6827 0.700015Z" fill="#F3D26A"/>
</svg>
